<svg xmlns="http://www.w3.org/2000/svg" width="15" height="8" viewBox="0 0 15 8" fill="none">
<path fill-rule="evenodd" clip-rule="evenodd" d="M8.62195 7.59453C8.32684 7.85417 7.92681 8 7.50973 8C7.09264 8 6.69261 7.85417 6.39751 7.59453L0.460761 2.36676C0.165642 2.10667 -9.8344e-05 1.75396 4.3779e-08 1.38622C9.84315e-05 1.01849 0.166027 0.665848 0.461285 0.40588C0.756543 0.145913 1.15694 -8.66303e-05 1.5744 3.85644e-08C1.99186 8.67074e-05 2.39218 0.146252 2.6873 0.406342L7.50973 4.65437L12.3322 0.406342C12.6289 0.153666 13.0264 0.0137546 13.439 0.0167409C13.8517 0.0197273 14.2465 0.165373 14.5385 0.422308C14.8304 0.679244 14.9962 1.02691 14.9999 1.39043C15.0037 1.75395 14.8453 2.10423 14.5587 2.36583L8.623 7.59546L8.62195 7.59453Z" fill="#72748E"/>
</svg>