<svg xmlns="http://www.w3.org/2000/svg" width="9" height="5" viewBox="0 0 9 5" fill="none">
<path fill-rule="evenodd" clip-rule="evenodd" d="M3.82683 0.253417C4.00389 0.091146 4.24391 0 4.49416 0C4.74441 0 4.98443 0.091146 5.1615 0.253417L8.72354 3.52078C8.90061 3.68333 9.00006 3.90378 9 4.13361C8.99994 4.36345 8.90038 4.58385 8.72323 4.74632C8.54607 4.9088 8.30583 5.00005 8.05536 5C7.80488 4.99995 7.56469 4.90859 7.38762 4.74604L4.49416 2.09102L1.60071 4.74604C1.42268 4.90396 1.18419 4.9914 0.936582 4.98954C0.688977 4.98767 0.452077 4.89664 0.276905 4.73606C0.101733 4.57547 0.00230694 4.35818 3.91006e-05 4.13098C-0.00222874 3.90378 0.092845 3.68486 0.264782 3.52135L3.82683 0.253417Z" fill="#F4F5F7"/>
</svg>