<svg xmlns="http://www.w3.org/2000/svg" width="35" height="35" viewBox="0 0 35 35" fill="none">
<path d="M35 17.3492C35 17.2307 35 17.096 34.9961 16.9398C34.9922 16.5035 34.9844 16.0134 34.9766 15.4909C34.9453 13.9881 34.8906 12.4908 34.8047 11.0796C34.6875 9.13512 34.5156 7.51385 34.2812 6.29655C34.0339 5.0262 33.5491 3.86761 32.8753 2.93658C32.2014 2.00555 31.3622 1.3347 30.4414 0.991074C29.3359 0.581717 27.1719 0.328562 24.125 0.172361C22.6758 0.0969527 21.125 0.0484761 19.5742 0.0215448C19.0312 0.0107722 18.5273 0.00538627 18.0742 0H16.9258C16.4727 0.00538627 15.9688 0.0107722 15.4258 0.0215448C13.875 0.0484761 12.3242 0.0969527 10.875 0.172361C7.82812 0.333949 5.66016 0.587103 4.55859 0.991074C3.6375 1.33385 2.79793 2.00442 2.124 2.93558C1.45007 3.86674 0.965469 5.02578 0.71875 6.29655C0.480469 7.51385 0.3125 9.13512 0.195312 11.0796C0.109375 12.4908 0.0546874 13.9881 0.0234374 15.4909C0.0117187 16.0134 0.00781244 16.5035 0.00390619 16.9398C0.00390619 17.096 0 17.2307 0 17.3492V17.6508C0 17.7693 -5.96046e-08 17.904 0.00390619 18.0602C0.00781244 18.4965 0.0156249 18.9866 0.0234374 19.5091C0.0546874 21.0118 0.109375 22.5092 0.195312 23.9204C0.3125 25.8649 0.484375 27.4861 0.71875 28.7034C1.21875 31.2835 2.6875 33.3195 4.55859 34.0089C5.66016 34.4183 7.82812 34.6714 10.875 34.8276C12.3242 34.903 13.875 34.9515 15.4258 34.9785C15.9688 34.9892 16.4727 34.9946 16.9258 35H18.0742C18.5273 34.9946 19.0312 34.9892 19.5742 34.9785C21.125 34.9515 22.6758 34.903 24.125 34.8276C27.1719 34.666 29.3398 34.4129 30.4414 34.0089C32.3125 33.3195 33.7812 31.2889 34.2812 28.7034C34.5195 27.4861 34.6875 25.8649 34.8047 23.9204C34.8906 22.5092 34.9453 21.0118 34.9766 19.5091C34.9883 18.9866 34.9922 18.4965 34.9961 18.0602C34.9961 17.904 35 17.7693 35 17.6508V17.3492ZM32.1875 17.6293C32.1875 17.7424 32.1875 17.8663 32.1836 18.0117C32.1797 18.4318 32.1719 18.895 32.1641 19.396C32.1367 20.8287 32.082 22.2615 32 23.5919C31.8945 25.3263 31.7461 26.7482 31.5625 27.7016C31.3203 28.9458 30.6094 29.9315 29.7109 30.2601C28.8906 30.5617 26.8242 30.8041 24.0156 30.9495C22.5938 31.0249 21.0625 31.0734 19.5352 31.1003C19 31.1111 18.5039 31.1165 18.0586 31.1165H16.9414L15.4648 31.1003C13.9375 31.0734 12.4102 31.0249 10.9844 30.9495C8.17578 30.7987 6.10547 30.5617 5.28906 30.2601C4.39062 29.9261 3.67969 28.9458 3.4375 27.7016C3.25391 26.7482 3.10547 25.3263 3 23.5919C2.91797 22.2615 2.86719 20.8287 2.83594 19.396C2.82422 18.895 2.82031 18.4264 2.81641 18.0117C2.81641 17.8663 2.8125 17.737 2.8125 17.6293V17.3707C2.8125 17.2576 2.8125 17.1337 2.81641 16.9883C2.82031 16.5682 2.82813 16.105 2.83594 15.604C2.86328 14.1713 2.91797 12.7385 3 11.4081C3.10547 9.67374 3.25391 8.25177 3.4375 7.2984C3.67969 6.05417 4.39062 5.06848 5.28906 4.73992C6.10938 4.43829 8.17578 4.19591 10.9844 4.05048C12.4062 3.97507 13.9375 3.92659 15.4648 3.89966C16 3.88889 16.4961 3.8835 16.9414 3.8835H18.0586L19.5352 3.89966C21.0625 3.92659 22.5898 3.97507 24.0156 4.05048C26.8242 4.20129 28.8945 4.43829 29.7109 4.73992C30.6094 5.07387 31.3203 6.05417 31.5625 7.2984C31.7461 8.25177 31.8945 9.67374 32 11.4081C32.082 12.7385 32.1328 14.1713 32.1641 15.604C32.1758 16.105 32.1797 16.5736 32.1836 16.9883C32.1836 17.1337 32.1875 17.263 32.1875 17.3707V17.6293ZM14.0234 24.7176L23.0859 17.4461L14.0234 10.2824V24.7176Z" fill="#72748E"/>
</svg>